<svg width="22" height="16" viewBox="0 0 22 16" fill="none" xmlns="http://www.w3.org/2000/svg">
<g clip-path="url(#clip0_1000_5912)">
<mask id="mask0_1000_5912" style="mask-type:alpha" maskUnits="userSpaceOnUse" x="0" y="0" width="22" height="16">
<path d="M0 0H22V16H0V0Z" fill="white"/>
</mask>
<g mask="url(#mask0_1000_5912)">
<path fill-rule="evenodd" clip-rule="evenodd" d="M0 0V16H22V0H0Z" fill="#2E42A5"/>
<mask id="mask1_1000_5912" style="mask-type:alpha" maskUnits="userSpaceOnUse" x="0" y="0" width="22" height="16">
<path fill-rule="evenodd" clip-rule="evenodd" d="M0 0V16H22V0H0Z" fill="white"/>
</mask>
<g mask="url(#mask1_1000_5912)">
<mask id="mask2_1000_5912" style="mask-type:alpha" maskUnits="userSpaceOnUse" x="0" y="0" width="22" height="16">
<path d="M0 0H22V16H0V0Z" fill="white"/>
</mask>
<g mask="url(#mask2_1000_5912)">
<path d="M-2.44946 14.8567L2.39191 16.8427L22.1094 2.15868L24.6635 -0.791989L19.4866 -1.45532L11.4442 4.87201L4.97072 9.13601L-2.44946 14.8567Z" fill="white"/>
<path d="M-1.78735 16.248L0.680084 17.4L23.7464 -1.06598H20.2835L-1.78667 16.2474L-1.78735 16.248Z" fill="#F50100"/>
<path d="M24.4496 14.8567L19.6082 16.8427L-0.109267 2.15868L-2.66333 -0.791989L2.51354 -1.45532L10.5559 4.87201L17.0294 9.13601L24.4496 14.8567Z" fill="white"/>
<path d="M24.2846 15.8554L21.8179 17.0074L11.9963 9.10069L9.08401 8.21802L-2.90942 -0.781982H0.554201L12.5401 8.00468L15.7239 9.06335L24.2846 15.8554Z" fill="#F50100"/>
<path fill-rule="evenodd" clip-rule="evenodd" d="M13.5974 -1.33331H8.40266V5.33335H-1.35571V10.6667H8.40266V17.3334H13.5974V10.6667H23.3943V5.33335H13.5974V-1.33331Z" fill="#F50100"/>
<mask id="mask3_1000_5912" style="mask-type:alpha" maskUnits="userSpaceOnUse" x="-2" y="-2" width="26" height="20">
<path fill-rule="evenodd" clip-rule="evenodd" d="M13.5974 -1.33331H8.40266V5.33335H-1.35571V10.6667H8.40266V17.3334H13.5974V10.6667H23.3943V5.33335H13.5974V-1.33331Z" fill="white"/>
</mask>
<g mask="url(#mask3_1000_5912)">
<path d="M8.40266 -1.33332V-2.66666H7.02766V-1.33332H8.40266ZM13.5974 -1.33332H14.9724V-2.66666H13.5974V-1.33332ZM8.40266 5.33334V6.66668H9.77766V5.33334H8.40266ZM-1.35571 5.33334V4.00001H-2.73071V5.33334H-1.35571ZM-1.35571 10.6667H-2.73071V12H-1.35571V10.6667ZM8.40266 10.6667H9.77766V9.33334H8.40266V10.6667ZM8.40266 17.3333H7.02766V18.6667H8.40266V17.3333ZM13.5974 17.3333V18.6667H14.9724V17.3333H13.5974ZM13.5974 10.6667V9.33334H12.2224V10.6667H13.5974ZM23.3943 10.6667V12H24.7693V10.6667H23.3943ZM23.3943 5.33334H24.7693V4.00001H23.3943V5.33334ZM13.5974 5.33334H12.2224V6.66668H13.5974V5.33334ZM8.40266 1.0252e-05H13.5974V-2.66666H8.40266V1.0252e-05ZM9.77766 5.33334V-1.33332H7.02766V5.33334H9.77766ZM-1.35571 6.66668H8.40266V4.00001H-1.35571V6.66668ZM0.0192871 10.6667V5.33334H-2.73071V10.6667H0.0192871ZM8.40266 9.33334H-1.35571V12H8.40266V9.33334ZM9.77766 17.3333V10.6667H7.02766V17.3333H9.77766ZM13.5974 16H8.40266V18.6667H13.5974V16ZM12.2224 10.6667V17.3333H14.9724V10.6667H12.2224ZM23.3943 9.33334H13.5974V12H23.3943V9.33334ZM22.0193 5.33334V10.6667H24.7693V5.33334H22.0193ZM13.5974 6.66668H23.3943V4.00001H13.5974V6.66668ZM12.2224 -1.33332V5.33334H14.9724V-1.33332H12.2224Z" fill="white"/>
</g>
</g>
</g>
</g>
</g>
<defs>
<clipPath id="clip0_1000_5912">
<rect width="22" height="16" fill="white"/>
</clipPath>
</defs>
</svg>
