<svg width="22" height="22" viewBox="0 0 22 22" fill="none" xmlns="http://www.w3.org/2000/svg">
<path fill-rule="evenodd" clip-rule="evenodd" d="M4.58333 1.83337H17.4167C18.4292 1.83337 19.25 2.65419 19.25 3.66671V17.5582C19.25 18.828 17.9904 19.7132 16.7957 19.2832L15.3641 18.7678C14.9167 18.6067 14.4243 18.6258 13.9907 18.8209L11.7523 19.8282C11.2739 20.0435 10.7261 20.0435 10.2477 19.8282L8.00926 18.8209C7.57569 18.6258 7.08328 18.6067 6.63594 18.7678L5.20432 19.2832C4.00961 19.7132 2.75 18.828 2.75 17.5582V3.66671C2.75 2.65419 3.57081 1.83337 4.58333 1.83337ZM7.33333 5.72921C6.95364 5.72921 6.64583 6.03701 6.64583 6.41671C6.64583 6.7964 6.95364 7.10421 7.33333 7.10421H11C11.3797 7.10421 11.6875 6.7964 11.6875 6.41671C11.6875 6.03701 11.3797 5.72921 11 5.72921H7.33333ZM7.33333 9.39587C6.95364 9.39587 6.64583 9.70368 6.64583 10.0834C6.64583 10.4631 6.95364 10.7709 7.33333 10.7709H14.6667C15.0464 10.7709 15.3542 10.4631 15.3542 10.0834C15.3542 9.70368 15.0464 9.39587 14.6667 9.39587H7.33333ZM7.33333 13.0625C6.95364 13.0625 6.64583 13.3703 6.64583 13.75C6.64583 14.1297 6.95364 14.4375 7.33333 14.4375H14.6667C15.0464 14.4375 15.3542 14.1297 15.3542 13.75C15.3542 13.3703 15.0464 13.0625 14.6667 13.0625H7.33333Z" fill="#28303F"/>
</svg>
