<svg width="34" height="28" viewBox="0 0 34 28" fill="none" xmlns="http://www.w3.org/2000/svg">
<path fill-rule="evenodd" clip-rule="evenodd" d="M0.708984 2.66669C0.708984 1.49308 1.66038 0.541687 2.83398 0.541687H31.1673C32.3409 0.541687 33.2923 1.49308 33.2923 2.66669C33.2923 3.84029 32.3409 4.79169 31.1673 4.79169H2.83398C1.66038 4.79169 0.708984 3.84029 0.708984 2.66669ZM0.708984 14C0.708984 12.8264 1.66038 11.875 2.83398 11.875H31.1673C32.3409 11.875 33.2923 12.8264 33.2923 14C33.2923 15.1736 32.3409 16.125 31.1673 16.125H2.83398C1.66038 16.125 0.708984 15.1736 0.708984 14ZM2.83398 23.2084C1.66038 23.2084 0.708984 24.1597 0.708984 25.3334C0.708984 26.507 1.66038 27.4584 2.83398 27.4584H31.1673C32.3409 27.4584 33.2923 26.507 33.2923 25.3334C33.2923 24.1597 32.3409 23.2084 31.1673 23.2084H2.83398Z" fill="#252525"/>
</svg>
