<svg width="14" height="14" viewBox="0 0 14 14" fill="none" xmlns="http://www.w3.org/2000/svg">
<path d="M1.3436 9.82839C0.56255 10.6094 0.562551 11.8758 1.3436 12.6568C2.12465 13.4379 3.39098 13.4379 4.17203 12.6568L7.00045 9.82839L9.82888 12.6568C10.6099 13.4379 11.8763 13.4379 12.6573 12.6568C13.4384 11.8758 13.4384 10.6094 12.6573 9.82839L9.82888 6.99997L12.6573 4.17154C13.4384 3.39049 13.4384 2.12416 12.6573 1.34311C11.8763 0.562062 10.6099 0.562062 9.82888 1.34311L7.00045 4.17154L4.17203 1.34311C3.39098 0.562062 2.12465 0.562062 1.3436 1.34311C0.562551 2.12416 0.562551 3.39049 1.3436 4.17154L4.17203 6.99996L1.3436 9.82839Z" fill="#28303F"/>
</svg>
