<svg width="22" height="22" viewBox="0 0 22 22" fill="none" xmlns="http://www.w3.org/2000/svg">
<path fill-rule="evenodd" clip-rule="evenodd" d="M4.58333 1.83325H17.4167C18.4292 1.83325 19.25 2.65406 19.25 3.66659V17.5581C19.25 18.8278 17.9904 19.7131 16.7957 19.283L15.3641 18.7676C14.9167 18.6066 14.4243 18.6256 13.9907 18.8208L11.7523 19.828C11.2739 20.0433 10.7261 20.0433 10.2477 19.828L8.00926 18.8208C7.57569 18.6256 7.08328 18.6066 6.63594 18.7676L5.20432 19.283C4.00961 19.7131 2.75 18.8278 2.75 17.5581V3.66659C2.75 2.65406 3.57081 1.83325 4.58333 1.83325ZM7.33333 5.72909C6.95364 5.72909 6.64583 6.03689 6.64583 6.41659C6.64583 6.79628 6.95364 7.10409 7.33333 7.10409H11C11.3797 7.10409 11.6875 6.79628 11.6875 6.41659C11.6875 6.03689 11.3797 5.72909 11 5.72909H7.33333ZM7.33333 9.39575C6.95364 9.39575 6.64583 9.70356 6.64583 10.0833C6.64583 10.4629 6.95364 10.7708 7.33333 10.7708H14.6667C15.0464 10.7708 15.3542 10.4629 15.3542 10.0833C15.3542 9.70356 15.0464 9.39575 14.6667 9.39575H7.33333ZM7.33333 13.0624C6.95364 13.0624 6.64583 13.3702 6.64583 13.7499C6.64583 14.1296 6.95364 14.4374 7.33333 14.4374H14.6667C15.0464 14.4374 15.3542 14.1296 15.3542 13.7499C15.3542 13.3702 15.0464 13.0624 14.6667 13.0624H7.33333Z" fill="white"/>
</svg>
