<svg width="22" height="22" viewBox="0 0 22 22" fill="none" xmlns="http://www.w3.org/2000/svg">
<path fill-rule="evenodd" clip-rule="evenodd" d="M16.5 1.7959H5.49998C3.47494 1.7959 1.83331 3.40402 1.83331 5.38774V16.1632C1.83331 18.147 3.47494 19.7551 5.49998 19.7551H16.5C18.525 19.7551 20.1666 18.147 20.1666 16.1632V5.38773C20.1666 3.40402 18.525 1.7959 16.5 1.7959ZM8.70332 12.9631C8.41947 12.7191 7.98739 12.7451 7.73614 13.0219C7.48389 13.2999 7.50945 13.7256 7.79324 13.9727L8.04537 14.1625C8.19417 14.2639 8.40767 14.3948 8.68052 14.5244C9.22624 14.7835 10.0162 15.0408 11 15.0408C11.9838 15.0408 12.7737 14.7835 13.3195 14.5244C13.5923 14.3948 13.8058 14.2639 13.9546 14.1625C14.0291 14.1118 14.0878 14.0681 14.1299 14.0353L14.2067 13.9727C14.4905 13.7256 14.5161 13.2999 14.2638 13.0219C14.0126 12.7451 13.5805 12.7191 13.2966 12.9631L13.1694 13.0568C13.0711 13.1238 12.9194 13.2175 12.7196 13.3124C12.32 13.5021 11.7349 13.6939 11 13.6939C10.265 13.6939 9.67998 13.5021 9.28039 13.3124C9.08058 13.2175 8.92885 13.1238 8.83058 13.0568L8.70332 12.9631ZM15.5833 8.97957C15.5833 9.4755 15.1729 9.87753 14.6666 9.87753C14.1604 9.87753 13.75 9.4755 13.75 8.97957C13.75 8.48364 14.1604 8.08161 14.6666 8.08161C15.1729 8.08161 15.5833 8.48364 15.5833 8.97957ZM7.33331 9.87753C7.83957 9.87753 8.24998 9.4755 8.24998 8.97957C8.24998 8.48364 7.83957 8.08161 7.33331 8.08161C6.82705 8.08161 6.41665 8.48364 6.41665 8.97957C6.41665 9.4755 6.82705 9.87753 7.33331 9.87753Z" fill="white"/>
</svg>
