<svg width="22" height="22" viewBox="0 0 22 22" fill="none" xmlns="http://www.w3.org/2000/svg">
<path fill-rule="evenodd" clip-rule="evenodd" d="M9.1373 3.81876C9.94916 2.39375 12.0508 2.39375 12.8627 3.81876L19.8954 16.163C20.6845 17.548 19.6575 19.25 18.0328 19.25H3.96721C2.34248 19.25 1.31549 17.548 2.10453 16.163L9.1373 3.81876ZM11.9166 15.5833C11.9166 16.0896 11.5062 16.5 10.9999 16.5C10.4937 16.5 10.0833 16.0896 10.0833 15.5833C10.0833 15.0771 10.4937 14.6667 10.9999 14.6667C11.5062 14.6667 11.9166 15.0771 11.9166 15.5833ZM11.6874 8.25C11.6874 7.8703 11.3796 7.5625 10.9999 7.5625C10.6202 7.5625 10.3124 7.8703 10.3124 8.25V12.8333C10.3124 13.213 10.6202 13.5208 10.9999 13.5208C11.3796 13.5208 11.6874 13.213 11.6874 12.8333V8.25Z" fill="white"/>
</svg>
