<svg width="24" height="24" viewBox="0 0 24 24" fill="none" xmlns="http://www.w3.org/2000/svg">
<path fill-rule="evenodd" clip-rule="evenodd" d="M6 2.75C4.20507 2.75 2.75 4.20507 2.75 6V18C2.75 19.7949 4.20507 21.25 6 21.25H18C19.7949 21.25 21.25 19.7949 21.25 18V9C21.25 8.58579 21.5858 8.25 22 8.25C22.4142 8.25 22.75 8.58579 22.75 9V18C22.75 20.6234 20.6234 22.75 18 22.75H6C3.37665 22.75 1.25 20.6234 1.25 18V6C1.25 3.37665 3.37665 1.25 6 1.25H17C17.4142 1.25 17.75 1.58579 17.75 2C17.75 2.41421 17.4142 2.75 17 2.75H6Z" fill="#28303F"/>
</svg>
