<svg width="18" height="18" viewBox="0 0 18 18" fill="none" xmlns="http://www.w3.org/2000/svg">
<path fill-rule="evenodd" clip-rule="evenodd" d="M6.93764 3.5625C6.93764 2.42341 7.86105 1.5 9.00014 1.5C10.1392 1.5 11.0626 2.42341 11.0626 3.5625V3.68674C12.8514 3.90443 14.5224 4.40098 15.9965 5.11935C16.2758 5.25544 16.3919 5.59215 16.2558 5.87142C16.1197 6.15068 15.783 6.26675 15.5037 6.13065C13.635 5.21998 11.4033 4.6875 9.00013 4.6875C6.59693 4.6875 4.36527 5.21998 2.49654 6.13065C2.21728 6.26675 1.88057 6.15068 1.74447 5.87142C1.60838 5.59215 1.72445 5.25544 2.00371 5.11935C3.47783 4.40098 5.1489 3.90442 6.93764 3.68674V3.5625ZM13.6992 13.7123C13.587 15.2822 12.2807 16.4985 10.7068 16.4985H7.29352C5.7196 16.4985 4.41328 15.2822 4.30114 13.7123L3.78497 6.48593C5.37296 5.93219 7.13921 5.62354 9.00016 5.62354C10.8611 5.62354 12.6274 5.93219 14.2153 6.48593L13.6992 13.7123ZM8.06266 8.24854C8.06266 7.93787 7.81082 7.68604 7.50016 7.68604C7.1895 7.68604 6.93766 7.93787 6.93766 8.24854V12.7485C6.93766 13.0592 7.1895 13.311 7.50016 13.311C7.81082 13.311 8.06266 13.0592 8.06266 12.7485V8.24854ZM10.5002 7.68604C10.8108 7.68604 11.0627 7.93787 11.0627 8.24854V12.7485C11.0627 13.0592 10.8108 13.311 10.5002 13.311C10.1895 13.311 9.93766 13.0592 9.93766 12.7485V8.24854C9.93766 7.93787 10.1895 7.68604 10.5002 7.68604Z" fill="#28303F"/>
</svg>
