<svg width="22" height="22" viewBox="0 0 22 22" fill="none" xmlns="http://www.w3.org/2000/svg">
<path fill-rule="evenodd" clip-rule="evenodd" d="M12.8333 6.41667C12.8333 8.44171 11.1917 10.0833 9.16667 10.0833C7.14162 10.0833 5.5 8.44171 5.5 6.41667C5.5 4.39162 7.14162 2.75 9.16667 2.75C11.1917 2.75 12.8333 4.39162 12.8333 6.41667ZM15.5833 15.5833C15.5833 17.6084 12.7105 19.25 9.16667 19.25C5.62284 19.25 2.75 17.6084 2.75 15.5833C2.75 13.5583 5.62284 11.9167 9.16667 11.9167C12.7105 11.9167 15.5833 13.5583 15.5833 15.5833ZM16.5 11.6875C16.1203 11.6875 15.8125 11.3797 15.8125 11V9.85417H14.6667C14.287 9.85417 13.9792 9.54636 13.9792 9.16667C13.9792 8.78697 14.287 8.47917 14.6667 8.47917H15.8125V7.33333C15.8125 6.95364 16.1203 6.64583 16.5 6.64583C16.8797 6.64583 17.1875 6.95364 17.1875 7.33333V8.47917H18.3333C18.713 8.47917 19.0208 8.78697 19.0208 9.16667C19.0208 9.54636 18.713 9.85417 18.3333 9.85417H17.1875V11C17.1875 11.3797 16.8797 11.6875 16.5 11.6875Z" fill="#28303F"/>
</svg>
